<?xml version="1.0" encoding="UTF-8"?>
<svg id="Layer_1" xmlns="http://www.w3.org/2000/svg" version="1.1" viewBox="0 0 1920 1080">
  <!-- Generator: Adobe Illustrator 29.8.1, SVG Export Plug-In . SVG Version: 2.1.1 Build 2)  -->
  <defs>
    <style>
      .st0 {
        fill: #fe7f00;
      }

      .st1 {
        isolation: isolate;
      }

      .st2 {
        fill: #fff;
      }

      .st3 {
        fill: #f9f9f9;
      }

      .st4 {
        fill: #529cc6;
      }

      .st5 {
        fill: #87d6f9;
      }
    </style>
  </defs>
  <path class="st5" d="M310.84,529.42c-4.47-4.65-4.78-11.11-4.87-13.78-.47-14.06-.59-85.81.08-184.09-31.26-.46-62.52-.91-93.78-1.37h0c.09,68.07.19,136.15.28,204.22,0,3.17.5,26.72,19.93,42.1,13.68,10.83,28.73,11.25,33.5,11.19,57.28-.08,114.55-.16,171.83-.24,16.19-17.59,32.38-35.18,48.57-52.77-84.92.45-146.51.27-159.21.2-3.37-.02-11.23-.17-16.34-5.47h.01Z"/>
  <path class="st0" d="M389.34,295.15c4.45,4.67,4.73,11.14,4.8,13.8.41,14.07.18,85.82-.94,184.09,31.26.6,62.51,1.21,93.77,1.81h0c.23-68.07.45-136.15.68-204.22,0-3.17-.37-26.72-19.73-42.19-13.63-10.89-28.68-11.38-33.45-11.35-57.28-.19-114.55-.38-171.83-.57-16.27,17.52-32.55,35.03-48.82,52.55,84.92-.05,146.51.42,159.21.55,3.37.03,11.23.22,16.31,5.54h0Z"/>
  <path class="st4" d="M624.87,582.02"/>
  <path class="st4" d="M276.09,320.33"/>
  <path class="st4" d="M211.51,328.01"/>
  <path class="st4" d="M265.41,337.43"/>
  <path class="st2" d="M225.58,605.64"/>
  <path class="st2" d="M-38.34,604.3"/>
  <g class="st1">
    <g class="st1">
      <g class="st1">
        <path d="M558.29,273.84h91.73c105.4,0,167.67,52.6,167.67,157.98s-62.27,160.52-164.52,160.52h-94.88v-318.5h0ZM646.02,546.56c69.22,0,108.98-36.43,108.98-114.74s-39.76-112.2-108.98-112.2h-26.72v226.94h26.72Z"/>
        <path d="M850.62,273.84h62.69l29.87,160.9c5.58,33.9,11.47,67.79,17.04,101.69h2.1c7.15-33.9,14.73-68.08,22.3-101.69l42.29-160.9h53.02l42.29,160.9c7.57,33.02,15.15,67.5,22.72,101.69h2.1c5.58-34.19,11.04-68.38,16.62-101.69l29.87-160.9h58.49l-66.06,318.5h-75.53l-42.71-167.72c-5.68-24.74-10.73-49.09-15.15-73.24h-2.1c-4.73,24.16-9.89,48.5-15.57,73.24l-41.66,167.72h-74.27l-68.37-318.5h.02Z"/>
        <path d="M1285.48,434.16c0-104.22,70.48-166.16,157.58-166.16,43.13,0,77.42,19.09,99.09,40.32l-32.61,36.43c-17.67-16.36-38.29-27.66-65.22-27.66-55.96,0-96.14,43.83-96.14,115.32s37.03,116.68,94.67,116.68c30.51,0,54.07-13.05,73.42-32.73l32.61,35.45c-27.88,30-63.75,46.36-108.35,46.36-86.47,0-155.05-58.63-155.05-164.02h0Z"/>
      </g>
    </g>
  </g>
  <path class="st2" d="M268.66,236.54"/>
  <rect class="st3" x="1929" y="1080" width="6.5" height="6.5"/>
  <rect class="st3" x="3947" y="300" width="81" height="81"/>
</svg>