<?xml version="1.0" encoding="UTF-8"?>
<svg id="Layer_1" xmlns="http://www.w3.org/2000/svg" xmlns:xlink="http://www.w3.org/1999/xlink" version="1.1" viewBox="0 0 1920 1080">
  <!-- Generator: Adobe Illustrator 29.8.1, SVG Export Plug-In . SVG Version: 2.1.1 Build 2)  -->
  <defs>
    <style>
      .st0 {
        fill: #fe7f00;
      }

      .st1 {
        font-family: Silom, Silom;
        font-size: 12px;
      }

      .st2 {
        display: none;
      }

      .st2, .st3 {
        fill: #fff;
      }

      .st4 {
        fill: #f9f9f9;
        font-family: MyriadPro-Regular, 'Myriad Pro';
        font-size: 147.72px;
      }

      .st5 {
        fill: #04162b;
      }

      .st6 {
        fill: #529cc6;
      }

      .st7 {
        fill: #87d6f9;
      }

      .st8 {
        fill: url(#Gradient_bez_nazwy_45);
      }
    </style>
    <linearGradient id="Gradient_bez_nazwy_45" data-name="Gradient bez nazwy 45" x1="570.62" y1="450.52" x2="1911.4" y2="450.52" gradientUnits="userSpaceOnUse">
      <stop offset="0" stop-color="#fff"/>
      <stop offset="1" stop-color="#231f20"/>
    </linearGradient>
  </defs>
  <rect class="st5" x="-20.91" y="-6.05" width="1987.01" height="1099.17"/>
  <path class="st7" d="M400.84,540.08c-4.47-4.65-4.78-11.11-4.87-13.78-.47-14.06-.59-85.81.08-184.09-31.26-.46-62.52-.91-93.78-1.37h0c.09,68.07.19,136.15.28,204.22.01,3.17.5,26.72,19.93,42.1,13.68,10.83,28.73,11.25,33.5,11.19,57.28-.08,114.55-.16,171.83-.24,16.19-17.59,32.38-35.18,48.57-52.77-84.92.45-146.51.27-159.21.2-3.37-.02-11.23-.17-16.34-5.47Z"/>
  <path class="st0" d="M479.34,305.81c4.45,4.67,4.73,11.14,4.8,13.8.41,14.07.18,85.82-.94,184.09,31.26.6,62.51,1.21,93.77,1.81h0c.23-68.07.45-136.15.68-204.22,0-3.17-.37-26.72-19.73-42.19-13.63-10.89-28.68-11.38-33.45-11.35-57.28-.19-114.55-.38-171.83-.57-16.27,17.52-32.55,35.03-48.82,52.55,84.92-.05,146.51.42,159.21.55,3.37.03,11.23.22,16.31,5.54Z"/>
  <path class="st6" d="M714.87,592.67"/>
  <path class="st6" d="M366.09,330.98"/>
  <path class="st6" d="M301.51,338.67"/>
  <path class="st6" d="M355.41,348.08"/>
  <path class="st2" d="M225.58,605.64"/>
  <path class="st3" d="M-38.34,604.3"/>
  <g>
    <g>
      <path class="st8" d="M610.29,592.51v-320.14h87.27c23.62,0,46.1,2.87,67.44,8.61,21.33,5.74,40.11,15,56.33,27.78,16.21,12.79,29.17,29.34,38.87,49.67,9.69,20.33,14.54,44.92,14.54,73.76,0,19.02-2.21,36.23-6.61,51.63-4.41,15.41-10.67,29.1-18.78,41.06-8.12,11.97-17.72,22.21-28.83,30.74-11.11,8.53-23.27,15.49-36.49,20.9s-27.33,9.43-42.31,12.05c-14.99,2.63-30.24,3.93-45.75,3.93h-85.68ZM658.95,313.19v238.5h36.49c14.1,0,26.97-1.23,38.61-3.69,11.64-2.46,22.3-6.06,32-10.82,9.69-4.75,18.16-10.65,25.39-17.7,7.22-7.05,13.31-14.91,18.25-23.6,4.93-8.68,8.64-18.36,11.11-29.01,2.46-10.65,3.7-22.04,3.7-34.18,0-18.03-2.83-34.42-8.46-49.18-5.64-14.75-13.84-27.29-24.59-37.62-10.76-10.33-24.16-18.36-40.2-24.1-16.05-5.73-34.47-8.61-55.27-8.61h-37.02Z"/>
      <path class="st8" d="M1044.53,592.51h-55.54c-1.06-3.27-3.09-10-6.08-20.16-3-10.16-6.7-22.54-11.11-37.13-4.41-14.58-9.26-30.81-14.54-48.68-5.29-17.86-10.67-35.9-16.13-54.09-5.47-18.19-10.84-36.22-16.13-54.09-5.29-17.86-10.14-34.09-14.54-48.68-4.41-14.58-8.12-26.96-11.11-37.13-3-10.16-5.02-16.88-6.08-20.16h52.89c.7,2.63,2.2,8.11,4.5,16.47,2.29,8.36,5.02,18.61,8.2,30.73,3.17,12.13,6.69,25.41,10.58,39.83,3.88,14.43,7.84,29.26,11.9,44.5,4.05,15.24,8.02,30.08,11.9,44.5,3.88,14.43,7.4,27.71,10.58,39.83,3.17,12.13,5.9,22.38,8.2,30.73,2.29,8.36,3.79,13.85,4.5,16.47h1.59c.7-2.29,1.85-6.55,3.44-12.79,1.59-6.22,3.61-13.93,6.08-23.11,2.46-9.17,5.2-19.59,8.2-31.23,2.99-11.63,6.26-24.01,9.78-37.13,3.52-13.11,7.05-26.63,10.58-40.57,3.52-13.93,7.14-27.78,10.84-41.55,3.7-13.77,7.22-27.21,10.58-40.32,3.35-13.11,6.43-25.24,9.26-36.39h53.42l70.34,263.09h1.59c.7-2.29,1.85-6.64,3.44-13.03,1.59-6.39,3.61-14.34,6.08-23.85,2.46-9.5,5.29-20.16,8.46-31.96s6.43-24.26,9.79-37.37c3.35-13.11,6.88-26.63,10.58-40.57,3.7-13.93,7.31-27.7,10.84-41.31,3.52-13.6,6.96-26.8,10.31-39.59,3.35-12.79,6.43-24.59,9.26-35.41h52.36l-94.67,320.14h-55.54c-.71-2.62-2.21-8.03-4.5-16.23-2.3-8.19-5.02-18.11-8.2-29.75-3.17-11.63-6.7-24.5-10.58-38.6-3.88-14.09-7.76-28.52-11.64-43.27-3.88-14.75-7.76-29.18-11.64-43.27-3.88-14.09-7.41-26.96-10.58-38.6-3.17-11.63-5.91-21.55-8.2-29.75-2.3-8.19-3.79-13.6-4.5-16.23h-1.06l-67.7,255.71Z"/>
      <path class="st8" d="M1605.17,344.67c-5.64-5.9-11.64-11.14-17.98-15.74-6.35-4.59-12.78-8.44-19.3-11.56-6.53-3.11-13.4-5.41-20.63-6.88-7.23-1.48-14.54-2.21-21.95-2.21-10.23,0-19.75,1.4-28.56,4.18-8.82,2.79-16.75,6.88-23.8,12.29-7.06,5.41-13.31,11.8-18.78,19.18-5.47,7.38-10.05,15.74-13.75,25.08-3.7,9.34-6.53,19.42-8.46,30.24-1.94,10.82-2.91,22.13-2.91,33.93,0,18.69,2.38,35.58,7.14,50.65,4.76,15.08,11.55,27.95,20.36,38.6,8.81,10.66,19.57,18.86,32.26,24.59,12.69,5.74,26.97,8.61,42.84,8.61,7.41,0,14.89-.81,22.48-2.46,7.58-1.64,15.07-4.1,22.48-7.38,7.41-3.27,14.54-7.29,21.42-12.05,6.88-4.75,13.13-10.08,18.78-15.98.35.33,1.32,1.31,2.91,2.95,1.59,1.64,3.52,3.44,5.82,5.41,2.29,1.97,4.67,4.18,7.14,6.64,2.46,2.46,4.84,4.67,7.14,6.64,2.29,1.97,4.23,3.77,5.82,5.41,1.59,1.64,2.55,2.63,2.91,2.95-6.7,7.54-14.28,14.43-22.74,20.65-8.46,6.23-17.9,11.48-28.3,15.74-10.41,4.26-21.51,7.55-33.32,9.84-11.82,2.29-24.25,3.44-37.29,3.44-21.87,0-41.88-3.77-60.03-11.31-18.16-7.54-33.85-18.44-47.07-32.7-13.22-14.26-23.45-31.63-30.68-52.13-7.23-20.48-10.84-43.68-10.84-69.58,0-17.04,1.59-32.86,4.76-47.45,3.17-14.58,7.84-28.03,14.02-40.32,6.17-12.29,13.57-23.19,22.21-32.7,8.64-9.5,18.42-17.53,29.35-24.1,10.92-6.55,22.92-11.56,35.97-15,13.04-3.44,26.79-5.16,41.25-5.16,12.34,0,23.71.91,34.11,2.7,10.4,1.81,20.1,4.51,29.09,8.11,8.99,3.61,17.36,8.2,25.12,13.77,7.75,5.58,14.98,12.13,21.69,19.67-.36.33-1.32,1.4-2.91,3.2-1.59,1.81-3.44,3.86-5.55,6.15-2.12,2.3-4.41,4.76-6.88,7.38-2.47,2.63-4.76,5.09-6.88,7.38-2.12,2.3-3.97,4.26-5.55,5.9-1.59,1.64-2.56,2.79-2.91,3.44Z"/>
    </g>
    <g>
      <path class="st3" d="M610.29,592.51v-320.14h87.27c23.62,0,46.1,2.87,67.44,8.61,21.33,5.74,40.11,15,56.33,27.78,16.21,12.79,29.17,29.34,38.87,49.67,9.69,20.33,14.54,44.92,14.54,73.76,0,19.02-2.21,36.23-6.61,51.63-4.41,15.41-10.67,29.1-18.78,41.06-8.12,11.97-17.72,22.21-28.83,30.74-11.11,8.53-23.27,15.49-36.49,20.9s-27.33,9.43-42.31,12.05c-14.99,2.63-30.24,3.93-45.75,3.93h-85.68ZM658.95,313.19v238.5h36.49c14.1,0,26.97-1.23,38.61-3.69,11.64-2.46,22.3-6.06,32-10.82,9.69-4.75,18.16-10.65,25.39-17.7,7.22-7.05,13.31-14.91,18.25-23.6,4.93-8.68,8.64-18.36,11.11-29.01,2.46-10.65,3.7-22.04,3.7-34.18,0-18.03-2.83-34.42-8.46-49.18-5.64-14.75-13.84-27.29-24.59-37.62-10.76-10.33-24.16-18.36-40.2-24.1-16.05-5.73-34.47-8.61-55.27-8.61h-37.02Z"/>
      <path class="st3" d="M1044.53,592.51h-55.54c-1.06-3.27-3.09-10-6.08-20.16-3-10.16-6.7-22.54-11.11-37.13-4.41-14.58-9.26-30.81-14.54-48.68-5.29-17.86-10.67-35.9-16.13-54.09-5.47-18.19-10.84-36.22-16.13-54.09-5.29-17.86-10.14-34.09-14.54-48.68-4.41-14.58-8.12-26.96-11.11-37.13-3-10.16-5.02-16.88-6.08-20.16h52.89c.7,2.63,2.2,8.11,4.5,16.47,2.29,8.36,5.02,18.61,8.2,30.73,3.17,12.13,6.69,25.41,10.58,39.83,3.88,14.43,7.84,29.26,11.9,44.5,4.05,15.24,8.02,30.08,11.9,44.5,3.88,14.43,7.4,27.71,10.58,39.83,3.17,12.13,5.9,22.38,8.2,30.73,2.29,8.36,3.79,13.85,4.5,16.47h1.59c.7-2.29,1.85-6.55,3.44-12.79,1.59-6.22,3.61-13.93,6.08-23.11,2.46-9.17,5.2-19.59,8.2-31.23,2.99-11.63,6.26-24.01,9.78-37.13,3.52-13.11,7.05-26.63,10.58-40.57,3.52-13.93,7.14-27.78,10.84-41.55,3.7-13.77,7.22-27.21,10.58-40.32,3.35-13.11,6.43-25.24,9.26-36.39h53.42l70.34,263.09h1.59c.7-2.29,1.85-6.64,3.44-13.03,1.59-6.39,3.61-14.34,6.08-23.85,2.46-9.5,5.29-20.16,8.46-31.96s6.43-24.26,9.79-37.37c3.35-13.11,6.88-26.63,10.58-40.57,3.7-13.93,7.31-27.7,10.84-41.31,3.52-13.6,6.96-26.8,10.31-39.59,3.35-12.79,6.43-24.59,9.26-35.41h52.36l-94.67,320.14h-55.54c-.71-2.62-2.21-8.03-4.5-16.23-2.3-8.19-5.02-18.11-8.2-29.75-3.17-11.63-6.7-24.5-10.58-38.6-3.88-14.09-7.76-28.52-11.64-43.27-3.88-14.75-7.76-29.18-11.64-43.27-3.88-14.09-7.41-26.96-10.58-38.6-3.17-11.63-5.91-21.55-8.2-29.75-2.3-8.19-3.79-13.6-4.5-16.23h-1.06l-67.7,255.71Z"/>
      <path class="st3" d="M1605.17,344.67c-5.64-5.9-11.64-11.14-17.98-15.74-6.35-4.59-12.78-8.44-19.3-11.56-6.53-3.11-13.4-5.41-20.63-6.88-7.23-1.48-14.54-2.21-21.95-2.21-10.23,0-19.75,1.4-28.56,4.18-8.82,2.79-16.75,6.88-23.8,12.29-7.06,5.41-13.31,11.8-18.78,19.18-5.47,7.38-10.05,15.74-13.75,25.08-3.7,9.34-6.53,19.42-8.46,30.24-1.94,10.82-2.91,22.13-2.91,33.93,0,18.69,2.38,35.58,7.14,50.65,4.76,15.08,11.55,27.95,20.36,38.6,8.81,10.66,19.57,18.86,32.26,24.59,12.69,5.74,26.97,8.61,42.84,8.61,7.41,0,14.89-.81,22.48-2.46,7.58-1.64,15.07-4.1,22.48-7.38,7.41-3.27,14.54-7.29,21.42-12.05,6.88-4.75,13.13-10.08,18.78-15.98.35.33,1.32,1.31,2.91,2.95,1.59,1.64,3.52,3.44,5.82,5.41,2.29,1.97,4.67,4.18,7.14,6.64,2.46,2.46,4.84,4.67,7.14,6.64,2.29,1.97,4.23,3.77,5.82,5.41,1.59,1.64,2.55,2.63,2.91,2.95-6.7,7.54-14.28,14.43-22.74,20.65-8.46,6.23-17.9,11.48-28.3,15.74-10.41,4.26-21.51,7.55-33.32,9.84-11.82,2.29-24.25,3.44-37.29,3.44-21.87,0-41.88-3.77-60.03-11.31-18.16-7.54-33.85-18.44-47.07-32.7-13.22-14.26-23.45-31.63-30.68-52.13-7.23-20.48-10.84-43.68-10.84-69.58,0-17.04,1.59-32.86,4.76-47.45,3.17-14.58,7.84-28.03,14.02-40.32,6.17-12.29,13.57-23.19,22.21-32.7,8.64-9.5,18.42-17.53,29.35-24.1,10.92-6.55,22.92-11.56,35.97-15,13.04-3.44,26.79-5.16,41.25-5.16,12.34,0,23.71.91,34.11,2.7,10.4,1.81,20.1,4.51,29.09,8.11,8.99,3.61,17.36,8.2,25.12,13.77,7.75,5.58,14.98,12.13,21.69,19.67-.36.33-1.32,1.4-2.91,3.2-1.59,1.81-3.44,3.86-5.55,6.15-2.12,2.3-4.41,4.76-6.88,7.38-2.47,2.63-4.76,5.09-6.88,7.38-2.12,2.3-3.97,4.26-5.55,5.9-1.59,1.64-2.56,2.79-2.91,3.44Z"/>
    </g>
  </g>
  <text/>
  <text class="st4" transform="translate(401.06 761.16) scale(.97 1)"><tspan x="0" y="0">Daniel Wilczak Code</tspan></text>
  <path class="st3" d="M358.66,247.19"/>
  <text/>
  <text class="st1" transform="translate(1515.4 -454.53)"><tspan x="0" y="0">Lorem </tspan></text>
  <text/>
  <text/>
  <text/>
</svg>